<svg width="250.000000" height="80.000000" viewBox="0 0 250 80" fill="none" xmlns="http://www.w3.org/2000/svg" xmlns:xlink="http://www.w3.org/1999/xlink">
	<desc>
			Created with Pixso.
	</desc>
	<defs/>
	<path id="Star 1" d="M37.89 4.86L33.61 14.78C33.06 16.05 31.53 16.55 30.34 15.84L21.05 10.34C19.32 9.31 17.2 10.85 17.64 12.81L20.01 23.35C20.31 24.7 19.36 26 17.99 26.13L7.23 27.14C5.23 27.33 4.43 29.81 5.93 31.14L14.04 38.28C15.08 39.19 15.08 40.8 14.04 41.71L5.93 48.85C4.43 50.18 5.23 52.66 7.23 52.85L17.99 53.86C19.36 53.99 20.31 55.29 20.01 56.64L17.64 67.18C17.2 69.14 19.32 70.68 21.05 69.65L30.34 64.15C31.53 63.44 33.06 63.94 33.61 65.21L37.89 75.13C38.69 76.97 41.3 76.97 42.1 75.13L46.38 65.21C46.93 63.94 48.46 63.44 49.65 64.15L58.94 69.65C60.67 70.68 62.79 69.14 62.35 67.18L59.98 56.64C59.68 55.29 60.63 53.99 62 53.86L72.76 52.85C74.76 52.66 75.56 50.18 74.06 48.85L65.95 41.71C64.91 40.8 64.91 39.19 65.95 38.28L74.06 31.14C75.56 29.81 74.76 27.33 72.76 27.14L62 26.13C60.63 26 59.68 24.7 59.98 23.35L62.35 12.81C62.79 10.85 60.67 9.31 58.94 10.34L49.65 15.84C48.46 16.55 46.93 16.05 46.38 14.78L42.1 4.86C41.3 3.02 38.69 3.02 37.89 4.86Z" fill="#FFFFFF" fill-opacity="1.000000" fill-rule="evenodd"/>
	<path id="Star 2" d="M37.55 29.27L35.25 34.59C35.03 35.1 34.42 35.3 33.94 35.02L28.96 32.06C28.26 31.65 27.42 32.27 27.59 33.05L28.86 38.71C28.98 39.25 28.6 39.77 28.06 39.82L22.28 40.36C21.48 40.44 21.16 41.43 21.76 41.96L26.11 45.8C26.53 46.16 26.53 46.81 26.11 47.17L21.76 51C21.16 51.53 21.48 52.53 22.28 52.6L28.06 53.14C28.6 53.2 28.98 53.72 28.86 54.26L27.59 59.91C27.42 60.7 28.26 61.31 28.96 60.9L33.94 57.95C34.42 57.67 35.03 57.87 35.25 58.37L37.55 63.7C37.87 64.43 38.91 64.43 39.23 63.7L41.53 58.37C41.75 57.87 42.37 57.67 42.84 57.95L47.83 60.9C48.52 61.31 49.37 60.7 49.19 59.91L47.92 54.26C47.8 53.72 48.18 53.2 48.73 53.14L54.5 52.6C55.3 52.53 55.62 51.53 55.02 51L50.67 47.17C50.26 46.81 50.26 46.16 50.67 45.8L55.02 41.96C55.62 41.43 55.3 40.44 54.5 40.36L48.73 39.82C48.18 39.77 47.8 39.25 47.92 38.71L49.19 33.05C49.37 32.27 48.52 31.65 47.83 32.06L42.84 35.02C42.37 35.3 41.75 35.1 41.53 34.59L39.23 29.27C38.91 28.53 37.87 28.53 37.55 29.27Z" fill="#27272A" fill-opacity="1.000000" fill-rule="evenodd"/>
	<path id="MEET TRACKER" d="M94.5 37L94.5 13.72L102.36 13.72L107.77 26.9L108.04 26.9L113.45 13.72L121.32 13.72L121.32 37L115.13 37L115.13 23.54L114.95 23.54L109.77 36.82L106.04 36.82L100.86 23.45L100.68 23.45L100.68 37L94.5 37ZM141.04 37L124.31 37L124.31 13.72L141.09 13.72L141.09 18.82L130.63 18.82L130.63 22.82L140.22 22.82L140.22 27.9L130.63 27.9L130.63 31.9L141.04 31.9L141.04 37ZM160.95 37L144.22 37L144.22 13.72L161 13.72L161 18.82L150.54 18.82L150.54 22.82L160.13 22.82L160.13 27.9L150.54 27.9L150.54 31.9L160.95 31.9L160.95 37ZM170.5 18.82L163.5 18.82L163.5 13.72L183.73 13.72L183.73 18.82L176.73 18.82L176.73 37L170.5 37L170.5 18.82ZM173.31 42.4C179.18 42.4 183.4 45.67 183.9 51.45L177.5 51.45C177.31 49.34 175.93 47.9 173.5 47.9C170.31 47.9 168.58 50.32 168.58 54.36C168.58 58.63 170.37 60.82 173.45 60.82C175.77 60.82 177.18 59.57 177.5 57.59L183.9 57.63C183.58 61.59 180.13 66.32 173.31 66.32C166.9 66.32 162.08 62.1 162.08 54.36C162.08 46.59 167.04 42.4 173.31 42.4ZM100.86 47.82L93.86 47.82L93.86 42.72L114.09 42.72L114.09 47.82L107.09 47.82L107.09 66L100.86 66L100.86 47.82ZM122.77 66L116.45 66L116.45 42.72L126.5 42.72C131.67 42.72 135.13 45.67 135.13 50.63C135.13 53.86 133.65 56.12 131.18 57.32L135.9 66L129.04 66L124.95 58.32L122.77 58.32L122.77 66ZM145.2 61.54L143.86 66L137.04 66L144.72 42.72L153.36 42.72L161.04 66L154.22 66L152.88 61.54L145.2 61.54ZM193.09 66L186.77 66L186.77 42.72L193.09 42.72L193.09 52.13L193.4 52.13L200.4 42.72L207.77 42.72L199.9 53.09L207.95 66L200.4 66L195.17 57.27L193.09 60L193.09 66ZM226.36 66L209.63 66L209.63 42.72L226.41 42.72L226.41 47.82L215.95 47.82L215.95 51.82L225.54 51.82L225.54 56.9L215.95 56.9L215.95 60.9L226.36 60.9L226.36 66ZM235.86 66L229.54 66L229.54 42.72L239.59 42.72C244.76 42.72 248.22 45.67 248.22 50.63C248.22 53.86 246.74 56.12 244.27 57.32L248.99 66L242.13 66L238.04 58.32L235.86 58.32L235.86 66ZM122.77 47.77L122.77 53.4L125 53.4C127.21 53.4 128.54 52.62 128.54 50.63C128.54 48.63 127.21 47.77 125 47.77L122.77 47.77ZM235.86 47.77L235.86 53.4L238.09 53.4C240.3 53.4 241.63 52.62 241.63 50.63C241.63 48.63 240.3 47.77 238.09 47.77L235.86 47.77ZM148.95 49.13L146.63 56.82L151.45 56.82L149.13 49.13L148.95 49.13Z" fill="#FFFFFF" fill-opacity="1.000000" fill-rule="evenodd"/>
</svg>
